<svg width="24" height="24" viewBox="0 0 24 24" fill="none" xmlns="http://www.w3.org/2000/svg">
<path d="M2.99023 2.99023C2.7913 2.99029 2.5969 3.04967 2.43189 3.16078C2.26688 3.27189 2.13876 3.42969 2.0639 3.614C1.98905 3.79832 1.97086 4.00077 2.01166 4.19547C2.05247 4.39017 2.15041 4.56828 2.29297 4.70703L4 6.41406V14H2C1.448 14 1 14.448 1 15V20C1 20.552 1.448 21 2 21H17.1172C19.2722 21 21.1784 19.626 21.8594 17.582L23.9473 11.3164C24.0573 10.9864 23.9896 10.6254 23.7676 10.3594C23.5456 10.0934 23.2054 9.95977 22.8594 10.0098L19 10.5605V7C19 6.73479 18.8946 6.48045 18.7071 6.29292C18.5195 6.10539 18.2652 6.00003 18 6H9C8.80226 6.00008 8.60898 6.05877 8.44459 6.16866C8.2802 6.27855 8.15208 6.43471 8.07641 6.6174C8.00075 6.80009 7.98093 7.0011 8.01948 7.19505C8.05802 7.38899 8.1532 7.56716 8.29297 7.70703L10 9.41406V14H6V6C5.99995 5.7348 5.89457 5.48048 5.70703 5.29297L3.70703 3.29297C3.61384 3.19717 3.5024 3.12103 3.37928 3.06903C3.25617 3.01704 3.12388 2.99024 2.99023 2.99023ZM11.4141 8H17V10.8477L15.8594 11.0098C15.6454 11.0398 15.4469 11.14 15.2949 11.293L12.5859 14H12V9C11.9999 8.7348 11.8946 8.48048 11.707 8.29297L11.4141 8Z" fill="#999999"/>
</svg>
