<svg width="24" height="32" viewBox="0 0 24 32" fill="none" xmlns="http://www.w3.org/2000/svg">
<path d="M10.4003 1.06668C9.95866 1.06668 9.60026 1.54455 9.60026 2.13335V3.24376C5.33792 3.618 3.16179 6.87205 2.6362 7.77918C2.49662 7.96925 2.41531 8.22197 2.4082 8.48782C2.40108 8.75366 2.46868 9.01346 2.59775 9.21632C2.72681 9.41917 2.90804 9.55045 3.10591 9.58443C3.30379 9.61841 3.50405 9.55264 3.66745 9.40001C3.66745 9.40001 3.8986 9.17704 4.23307 8.94793C4.56754 8.71882 4.99835 8.53335 5.20026 8.53335C5.40217 8.53335 5.83298 8.71882 6.16745 8.94793C6.50192 9.17704 6.73307 9.40001 6.73307 9.40001C6.85026 9.51251 6.9881 9.58063 7.13197 9.59713C7.27584 9.61364 7.42038 9.57792 7.55026 9.49376C7.55026 9.49376 8.54856 8.89174 9.60026 8.64376V14.5521L10.4003 15.2542L11.2003 14.5521V8.64376C12.252 8.89174 13.2503 9.49376 13.2503 9.49376C13.3781 9.57661 13.5202 9.61256 13.6619 9.59791C13.8036 9.58326 13.9398 9.51855 14.0565 9.41043C14.0565 9.41043 14.3029 9.18392 14.6456 8.9521C14.9883 8.72027 15.4291 8.53335 15.6003 8.53335C15.7714 8.53335 16.2123 8.72027 16.5549 8.9521C16.8976 9.18392 17.144 9.41043 17.144 9.41043C17.3084 9.5587 17.5082 9.6203 17.7047 9.58327C17.9012 9.54623 18.0803 9.41321 18.2074 9.21001C18.3345 9.00681 18.4005 8.74791 18.3925 8.48353C18.3846 8.21915 18.3032 7.96814 18.1643 7.77918C17.6387 6.87205 15.4626 3.618 11.2003 3.24376V2.13335C11.2003 1.54455 10.8419 1.06668 10.4003 1.06668ZM19.2003 12.8C18.7759 12.8 18.3689 13.0248 18.0689 13.4249C17.7688 13.8249 17.6003 14.3676 17.6003 14.9333C17.6003 15.4991 17.7688 16.0418 18.0689 16.4418C18.3689 16.8419 18.7759 17.0667 19.2003 17.0667C19.6246 17.0667 20.0316 16.8419 20.3316 16.4418C20.6317 16.0418 20.8003 15.4991 20.8003 14.9333C20.8003 14.3676 20.6317 13.8249 20.3316 13.4249C20.0316 13.0248 19.6246 12.8 19.2003 12.8ZM6.37995 13.8667C6.25907 13.8707 6.14045 13.9113 6.03301 13.9853C5.92557 14.0592 5.83211 14.1647 5.75964 14.2938L3.35964 18.5604C3.25609 18.7451 3.20017 18.9695 3.20026 19.2H2.40026C2.29425 19.198 2.189 19.2241 2.09063 19.2768C1.99225 19.3295 1.90272 19.4078 1.82722 19.507C1.75172 19.6063 1.69177 19.7246 1.65086 19.855C1.60994 19.9854 1.58887 20.1253 1.58887 20.2667C1.58887 20.408 1.60994 20.548 1.65086 20.6784C1.69177 20.8088 1.75172 20.9271 1.82722 21.0263C1.90272 21.1256 1.99225 21.2038 2.09063 21.2565C2.189 21.3092 2.29425 21.3353 2.40026 21.3333H10.4003H10.6018C11.3465 21.3333 12.0845 21.1362 12.7721 20.75L15.8924 19C15.9778 18.9538 16.0566 18.8882 16.1253 18.8063C16.3338 18.6093 16.5039 18.3485 16.6213 18.0459C16.7388 17.7432 16.8001 17.4074 16.8003 17.0667C16.8003 16.5009 16.6317 15.9583 16.3316 15.5582C16.0316 15.1581 15.6246 14.9333 15.2003 14.9333C14.9889 14.9335 14.7797 14.9894 14.5846 15.0979L14.5815 15.0917L10.4003 17.0667L6.92057 14.1208L6.90026 14.1C6.75289 13.9429 6.5686 13.8602 6.37995 13.8667ZM6.54557 16.4563L8.74557 19.2H5.00026L6.54557 16.4563ZM21.5799 18.1292C21.481 18.1337 21.3835 18.1626 21.2924 18.2146L11.8393 23.4667H2.40026C2.29425 23.4647 2.189 23.4908 2.09063 23.5435C1.99225 23.5962 1.90272 23.6745 1.82722 23.7737C1.75172 23.873 1.69177 23.9912 1.65086 24.1216C1.60994 24.252 1.58887 24.392 1.58887 24.5333C1.58887 24.6747 1.60994 24.8147 1.65086 24.9451C1.69177 25.0755 1.75172 25.1937 1.82722 25.293C1.90272 25.3922 1.99225 25.4705 2.09063 25.5232C2.189 25.5759 2.29425 25.602 2.40026 25.6H4.00026V27.7333C3.99876 27.8747 4.01835 28.015 4.05788 28.1462C4.09741 28.2774 4.1561 28.3967 4.23053 28.4974C4.30497 28.5981 4.39367 28.678 4.49147 28.7326C4.58928 28.7871 4.69424 28.8152 4.80026 28.8152C4.90628 28.8152 5.01124 28.7871 5.10905 28.7326C5.20686 28.678 5.29555 28.5981 5.36999 28.4974C5.44442 28.3967 5.50311 28.2774 5.54264 28.1462C5.58218 28.015 5.60176 27.8747 5.60026 27.7333V25.6H11.9628H12.0424H18.4003V27.7333C18.3988 27.8747 18.4183 28.015 18.4579 28.1462C18.4974 28.2774 18.5561 28.3967 18.6305 28.4974C18.705 28.5981 18.7937 28.678 18.8915 28.7326C18.9893 28.7871 19.0942 28.8152 19.2003 28.8152C19.3063 28.8152 19.4112 28.7871 19.509 28.7326C19.6069 28.678 19.6956 28.5981 19.77 28.4974C19.8444 28.3967 19.9031 28.2774 19.9426 28.1462C19.9822 28.015 20.0018 27.8747 20.0003 27.7333V25.6H21.6003C21.7063 25.602 21.8115 25.5759 21.9099 25.5232C22.0083 25.4705 22.0978 25.3922 22.1733 25.293C22.2488 25.1937 22.3087 25.0755 22.3497 24.9451C22.3906 24.8147 22.4117 24.6747 22.4117 24.5333C22.4117 24.392 22.3906 24.252 22.3497 24.1216C22.3087 23.9912 22.2488 23.873 22.1733 23.7737C22.0978 23.6745 22.0083 23.5962 21.9099 23.5435C21.8115 23.4908 21.7063 23.4647 21.6003 23.4667H16.0018L21.9081 20.1854C22.0831 20.0919 22.2277 19.9191 22.3164 19.6973C22.4052 19.4755 22.4323 19.219 22.3931 18.9732C22.3538 18.7273 22.2508 18.5078 22.102 18.3534C21.9532 18.199 21.7683 18.1196 21.5799 18.1292Z" fill="#999999"/>
</svg>
