<svg width="180" height="195" viewBox="0 0 180 195" fill="none" xmlns="http://www.w3.org/2000/svg">
<g clip-path="url(#clip0_247_324)">
<path d="M126.147 85.3865C136.964 85.3865 145.733 76.5987 145.733 65.7584C145.733 54.918 136.964 46.1302 126.147 46.1302C115.33 46.1302 106.56 54.918 106.56 65.7584C106.56 76.5987 115.33 85.3865 126.147 85.3865Z" fill="#FFB979"/>
<path d="M179.874 80.393C179.917 80.3851 179.95 80.3548 180 80.3625C179.978 80.2776 179.949 80.1945 179.914 80.114C179.852 80.1992 179.788 80.2861 179.732 80.3622L179.874 80.393Z" fill="white"/>
<path d="M48.5036 112.214C48.618 116.497 49.3338 120.742 50.6299 124.824C50.6595 124.919 50.6906 125.012 50.7216 125.107H58.6567C58.6482 125.022 58.6398 124.927 58.6313 124.824C58.1022 118.728 55.0518 81.6297 58.699 75.2854C58.3802 75.8001 47.8884 92.8464 48.5036 112.214Z" fill="#00E369"/>
<path d="M49.099 124.824C49.1653 124.919 49.2345 125.013 49.305 125.107H55.2578C55.2126 125.026 55.1604 124.931 55.0997 124.824C54.1163 123.045 51.2056 117.727 48.5036 112.214C45.5999 106.29 42.9361 100.141 43.1604 97.9154C43.0913 98.4173 41.0821 113.719 49.099 124.824Z" fill="#2EC846"/>
<path d="M110.956 125.844C110.857 129.577 110.233 133.278 109.103 136.837C109.077 136.919 109.05 137.001 109.023 137.083H102.105C102.112 137.009 102.119 136.927 102.127 136.837C102.588 131.523 105.248 99.1793 102.068 93.6483C102.346 94.097 111.493 108.958 110.956 125.844Z" fill="#00E369"/>
<path d="M110.437 136.837C110.379 136.919 110.319 137.002 110.258 137.083H105.068C105.107 137.013 105.153 136.93 105.206 136.837C106.063 135.286 108.601 130.65 110.956 125.844C113.488 120.679 115.81 115.318 115.615 113.377C115.675 113.815 117.426 127.155 110.437 136.837Z" fill="#09CB62"/>
<path d="M31.8581 15.9318L35.0842 13.3461C32.578 13.069 31.5482 14.4387 31.1267 15.5229C29.1688 14.7081 27.0373 15.7759 27.0373 15.7759L33.4922 18.1242C33.1665 17.2526 32.5997 16.4921 31.8581 15.9318Z" fill="white"/>
<path d="M129.026 2.62197L132.252 0.0362125C129.746 -0.24088 128.716 1.12887 128.295 2.21303C126.337 1.39828 124.205 2.46605 124.205 2.46605L130.66 4.81437C130.335 3.94275 129.768 3.18223 129.026 2.62197Z" fill="white"/>
<path d="M176.493 104.876C176.493 107.019 176.418 109.144 176.269 111.251C175.12 127.878 169.367 143.855 159.657 157.386C158.388 159.161 157.055 160.886 155.659 162.561C152.042 166.908 148.026 170.906 143.664 174.501L124.544 163.258L113.112 136.519C113.112 136.519 130.169 101.91 176.462 102.538C176.482 103.314 176.492 104.094 176.493 104.876Z" fill="#3F3D56"/>
<path d="M176.269 111.251C175.39 123.676 171.95 135.783 166.166 146.809C160.383 157.835 152.382 167.54 142.669 175.311L124.905 164.867L114.767 141.153C114.767 141.153 131.195 107.821 176.269 111.251Z" fill="#E9FF63"/>
<path d="M159.656 157.386C158.387 159.161 157.055 160.886 155.659 162.561C146.306 173.823 134.354 182.63 120.839 188.221C118.103 189.352 115.302 190.349 112.436 191.213C91.7465 196.726 69.8271 195.332 49.9993 187.24C30.3898 178.469 14.5433 162.979 5.30606 143.552C4.06466 140.937 2.94832 138.255 1.95703 135.507C19.2456 122.815 53.3125 104.641 90.4414 122.301C100.712 127.186 109.883 131.639 117.954 135.659C138.434 145.833 152.065 153.167 159.656 157.386Z" fill="#3F3D56"/>
<path d="M155.659 162.561C145.99 174.173 133.563 183.162 119.52 188.701C105.476 194.24 90.2687 196.151 75.2956 194.258C60.3226 192.365 46.065 186.729 33.8346 177.868C21.6042 169.008 11.7939 157.207 5.30606 143.552C19.7449 132.11 53.0476 111.547 89.5945 128.928C98.9933 133.398 107.384 137.473 114.767 141.153C136.291 151.843 149.549 159.108 155.659 162.561Z" fill="#EFDC76"/>
<path d="M130.175 183.712C127.151 185.392 124.034 186.898 120.839 188.221C109.967 192.711 98.3194 195.015 86.56 195C72.6451 194.994 58.921 191.756 46.4654 185.54C34.0099 179.323 23.162 170.298 14.7738 159.172C36.2528 156.902 95.625 153.842 130.175 183.712Z" fill="#3F3D56"/>
<path d="M120.839 188.221C103.98 195.168 85.4139 196.823 67.596 192.967C49.7782 189.111 33.5482 179.925 21.0526 166.625C28.8651 165.475 90.2014 157.577 120.839 188.221Z" fill="#E9FF63"/>
<path d="M161.408 54.8993V54.9021C97.1919 7.32179 23.6181 40.8113 23.0498 41.0684V41.0656C31.3891 32.7097 41.2913 26.0845 52.1893 21.5693C63.0874 17.0541 74.7673 14.7378 86.56 14.7529C117.78 14.7528 145.284 30.6959 161.408 54.8993Z" fill="#8CE9E3"/>
<path d="M28.2004 106.624C39.0637 104.661 44.6304 85.0627 40.6341 62.8501C36.6377 40.6375 24.5915 24.2218 13.7282 26.1846C2.86485 28.1473 -2.7019 47.7454 1.29449 69.958C5.29088 92.1706 17.3371 108.586 28.2004 106.624Z" fill="#00C874"/>
<path d="M30.9922 132.565C30.3482 83.7751 14.0583 37.9888 13.8939 37.5323L12.4083 38.0694C12.5719 38.5236 28.7724 84.07 29.413 132.586L30.9922 132.565Z" fill="#E9FF63"/>
<path d="M2.09087 60.8845L1.60483 62.3907L21.107 68.711L21.593 67.2049L2.09087 60.8845Z" fill="#E9FF63"/>
<path d="M38.776 59.188L22.7076 71.9407L23.6883 73.1816L39.7567 60.4289L38.776 59.188Z" fill="#E9FF63"/>
<path d="M80.4353 99.5896C92.3799 99.5896 102.063 79.7903 102.063 55.3667C102.063 30.943 92.3799 11.1437 80.4353 11.1437C68.4906 11.1437 58.8076 30.943 58.8076 55.3667C58.8076 79.7903 68.4906 99.5896 80.4353 99.5896Z" fill="#43CBA8"/>
<path d="M78.4381 127.752C87.1002 75.6711 78.5253 23.7778 78.4377 23.2602L76.7527 23.5462C76.84 24.0614 85.3656 75.6819 76.7523 127.471L78.4381 127.752Z" fill="#E9FF63"/>
<path d="M61.3941 45.8574L60.588 47.3678L80.1452 57.8509L80.9514 56.3405L61.3941 45.8574Z" fill="#E9FF63"/>
<path d="M100.786 51.1087L81.2311 61.5977L82.0377 63.1079L101.593 52.6188L100.786 51.1087Z" fill="#E9FF63"/>
<path d="M174.38 85.3644C166.444 80.8998 158.154 77.1013 149.593 74.0077C102.257 56.8428 55.318 63.4583 36.9453 88.0239C51.2435 57.9292 102.262 48.4663 153.747 67.1351C159.74 69.306 165.604 71.8166 171.312 74.6546C172.555 78.1572 173.58 81.7341 174.38 85.3644Z" fill="#8CE9E3"/>
<path d="M110.449 36.9362L113.675 34.3505C111.169 34.0734 110.139 35.4431 109.718 36.5273C107.76 35.7126 105.628 36.7803 105.628 36.7803L112.083 39.1286C111.758 38.257 111.191 37.4965 110.449 36.9362Z" fill="white"/>
</g>
<defs>
<clipPath id="clip0_247_324">
<rect width="180" height="195" fill="white"/>
</clipPath>
</defs>
</svg>
