<svg width="100" height="125" viewBox="0 0 100 125" fill="none" xmlns="http://www.w3.org/2000/svg">
<path d="M61.8 24.1C67.4523 24.1 72.1 19.4523 72.1 13.8C72.1 8.14771 67.4523 3.5 61.8 3.5C56.1477 3.5 51.5 8.14771 51.5 13.8C51.5 19.4523 56.1477 24.1 61.8 24.1ZM61.8 8.3C64.8477 8.3 67.3 10.7523 67.3 13.8C67.3 16.8477 64.8477 19.3 61.8 19.3C58.7523 19.3 56.3 16.8477 56.3 13.8C56.3 10.7422 58.6623 8.3 61.8 8.3Z" fill="black" stroke="black" stroke-width="2"/>
<path d="M41.1585 53.9412L41.1425 53.9145C40.915 53.5353 40.775 53.1095 40.775 52.65C40.775 52.1905 40.915 51.7648 41.1425 51.3855L49.2251 37.9145C49.3875 37.6026 49.6108 37.3282 49.9183 37.1153C50.2134 36.911 50.5369 36.7975 50.8557 36.7294C51.2944 36.6078 51.7216 36.7088 52.0011 36.8137C52.3201 36.9333 52.6392 37.1288 52.8953 37.3812L57.9537 42.1533L70.5996 43.9043C70.647 43.9083 70.6874 43.9145 70.7185 43.92C70.7718 43.9296 70.8185 43.9413 70.8537 43.9509C70.9158 43.9678 70.977 43.9882 71.01 43.9992L71.0123 44H71.2C71.3468 44 71.6398 43.9961 71.8975 43.918C71.9616 43.8986 72.0096 43.8784 72.0445 43.8606L41.1585 53.9412ZM41.1585 53.9412L41.1762 53.9668M41.1585 53.9412L41.1762 53.9668M41.1762 53.9668L49.6323 66.2577L51.587 84.7303C51.5386 84.888 51.4419 85.1085 51.2599 85.3015C51.0502 85.5239 50.6455 85.8 49.8 85.8C48.8851 85.8 48.3591 85.4699 48.0321 85.1429C47.7442 84.855 47.5901 84.5565 47.4747 84.3182L45.5991 67.5364C45.5862 67.0683 45.4294 66.5396 45.0457 66.1327L39.27 59.162L39.2402 59.126M41.1762 53.9668L39.2402 59.126M39.2402 59.126L39.2071 59.0929M39.2402 59.126L39.2071 59.0929M39.2071 59.0929C38.6405 58.5263 37.8239 58.1418 36.9198 58.3163C36.0335 58.47 35.1793 59.119 35.1052 60.1533L28.69 85.1232C28.4478 85.3916 28.0685 85.7593 27.5943 86.0373C27.0331 86.3663 26.3994 86.5384 25.6962 86.3445C25.1058 86.1396 24.799 85.667 24.6469 85.0394C24.4956 84.4154 24.5473 83.7985 24.5761 83.621L32.3655 54.7606L32.4 54.6326M39.2071 59.0929L32.4 54.6326M32.4 54.6326V54.5M32.4 54.6326V54.5M32.4 54.5V54.4994M32.4 54.5V54.4994M59.2 39.1L58.4357 39.7449L58.463 39.7772L58.4929 39.8071L59.2 39.1ZM59.2 39.1C59.4 39.3 59.6 39.5 59.9 39.6L59.2 39.1ZM32.4 54.4994V54.4988M32.4 54.4994V54.4988M32.4 54.4988V54.4983M32.4 54.4988V54.4983M32.4 54.4983V54.4977M32.4 54.4983V54.4977M32.4 54.4977V54.4971M32.4 54.4977V54.4971M32.4 54.4971V54.4965M32.4 54.4971V54.4965M32.4 54.4965V54.496M32.4 54.4965V54.496M32.4 54.496V54.4954M32.4 54.496V54.4954M32.4 54.4954V54.4948M32.4 54.4954V54.4948M32.4 54.4948V54.4943M32.4 54.4948V54.4943M32.4 54.4943V54.4937M32.4 54.4943V54.4937M32.4 54.4937V54.4931M32.4 54.4937V54.4931M32.4 54.4931V54.4926M32.4 54.4931V54.4926M32.4 54.4926V54.492M32.4 54.4926V54.492M32.4 54.492V54.4915M32.4 54.492V54.4915M32.4 54.4915V54.4909M32.4 54.4915V54.4909M32.4 54.4909V54.4904M32.4 54.4909V54.4904M32.4 54.4904V54.4898M32.4 54.4904V54.4898M32.4 54.4898V54.4893M32.4 54.4898V54.4893M32.4 54.4893V54.4887M32.4 54.4893V54.4887M32.4 54.4887V54.4882M32.4 54.4887V54.4882M32.4 54.4882V54.4877M32.4 54.4882V54.4877M32.4 54.4877V54.4871M32.4 54.4877V54.4871M32.4 54.4871V54.4866M32.4 54.4871V54.4866M32.4 54.4866V54.486M32.4 54.4866V54.486M32.4 54.486V54.4855M32.4 54.486V54.4855M32.4 54.4855V54.485M32.4 54.4855V54.485M32.4 54.485V54.4845M32.4 54.485V54.4845M32.4 54.4845V54.4839M32.4 54.4845V54.4839M32.4 54.4839V54.4834M32.4 54.4839V54.4834M32.4 54.4834V54.4829M32.4 54.4834V54.4829M32.4 54.4829V54.4824M32.4 54.4829V54.4824M32.4 54.4824V54.4819M32.4 54.4824V54.4819M32.4 54.4819V54.4813M32.4 54.4819V54.4813M32.4 54.4813V54.4808M32.4 54.4813V54.4808M32.4 54.4808V54.4803M32.4 54.4808V54.4803M32.4 54.4803V54.4798M32.4 54.4803V54.4798M32.4 54.4798V54.4793M32.4 54.4798V54.4793M32.4 54.4793V54.4788M32.4 54.4793V54.4788M32.4 54.4788V54.4783M32.4 54.4788V54.4783M32.4 54.4783V54.4778M32.4 54.4783V54.4778M32.4 54.4778V54.4773M32.4 54.4778V54.4773M32.4 54.4773V54.4768M32.4 54.4773V54.4768M32.4 54.4768V54.4763M32.4 54.4768V54.4763M32.4 54.4763V54.4758M32.4 54.4763V54.4758M32.4 54.4758V54.4753M32.4 54.4758V54.4753M32.4 54.4753V54.4748M32.4 54.4753V54.4748M32.4 54.4748V54.4743M32.4 54.4748V54.4743M32.4 54.4743V54.4739M32.4 54.4743V54.4739M32.4 54.4739V54.4734M32.4 54.4739V54.4734M32.4 54.4734V54.4729M32.4 54.4734V54.4729M32.4 54.4729V54.4724M32.4 54.4729V54.4724M32.4 54.4724V54.4719M32.4 54.4724V54.4719M32.4 54.4719V54.4715M32.4 54.4719V54.4715M32.4 54.4715V54.471M32.4 54.4715V54.471M32.4 54.471V54.4705M32.4 54.471V54.4705M32.4 54.4705V54.47M32.4 54.4705V54.47M32.4 54.47V54.4696M32.4 54.47V54.4696M32.4 54.4696V54.4691M32.4 54.4696V54.4691M32.4 54.4691V54.4686M32.4 54.4691V54.4686M32.4 54.4686V54.4682M32.4 54.4686V54.4682M32.4 54.4682V54.4677M32.4 54.4682V54.4677M32.4 54.4677V54.4673M32.4 54.4677V54.4673M32.4 54.4673V54.4668M32.4 54.4673V54.4668M32.4 54.4668V54.4663M32.4 54.4668V54.4663M32.4 54.4663V54.4659M32.4 54.4663V54.4659M32.4 54.4659V54.4654M32.4 54.4659V54.4654M32.4 54.4654V54.465M32.4 54.4654V54.465M32.4 54.465V54.4645M32.4 54.465V54.4645M32.4 54.4645V54.4641M32.4 54.4645V54.4641M32.4 54.4641V54.4636M32.4 54.4641V54.4636M32.4 54.4636V54.4632M32.4 54.4636V54.4632M32.4 54.4632V54.4627M32.4 54.4632V54.4627M32.4 54.4627V54.4623M32.4 54.4627V54.4623M32.4 54.4623V54.4619M32.4 54.4623V54.4619M32.4 54.4619V54.4614M32.4 54.4619V54.4614M32.4 54.4614V54.461M32.4 54.4614V54.461M32.4 54.461V54.4606M32.4 54.461V54.4606M32.4 54.4606V54.4601M32.4 54.4606V54.4601M32.4 54.4601V54.4597M32.4 54.4601V54.4597M32.4 54.4597V54.4593M32.4 54.4597V54.4593M32.4 54.4593V54.4588M32.4 54.4593V54.4588M32.4 54.4588V54.4584M32.4 54.4588V54.4584M32.4 54.4584V54.458M32.4 54.4584V54.458M32.4 54.458V54.4576M32.4 54.458V54.4576M32.4 54.4576V54.4571M32.4 54.4576V54.4571M32.4 54.4571V54.4567M32.4 54.4571V54.4567M32.4 54.4567V54.4563M32.4 54.4567V54.4563M32.4 54.4563V54.4559M32.4 54.4563V54.4559M32.4 54.4559V54.4555M32.4 54.4559V54.4555M32.4 54.4555V54.455M32.4 54.4555V54.455M32.4 54.455V54.4546M32.4 54.455V54.4546M32.4 54.4546V54.4542M32.4 54.4546V54.4542M32.4 54.4542V54.4538M32.4 54.4542V54.4538M32.4 54.4538V54.4534M32.4 54.4538V54.4534M32.4 54.4534V54.453M32.4 54.4534V54.453M32.4 54.453V54.4526M32.4 54.453V54.4526M32.4 54.4526V54.4522M32.4 54.4526V54.4522M32.4 54.4522V54.4518M32.4 54.4522V54.4518M32.4 54.4518V54.4514M32.4 54.4518V54.4514M32.4 54.4514V54.451M32.4 54.4514V54.451M32.4 54.451V54.4506M32.4 54.451V54.4506M32.4 54.4506V54.4502M32.4 54.4506V54.4502M32.4 54.4502V54.4498M32.4 54.4502V54.4498M32.4 54.4498V54.4494M32.4 54.4498V54.4494M32.4 54.4494V54.449M32.4 54.4494V54.449M32.4 54.449V54.4486M32.4 54.449V54.4486M32.4 54.4486V54.4482M32.4 54.4486V54.4482M32.4 54.4482V54.4478M32.4 54.4482V54.4478M32.4 54.4478V54.4474M32.4 54.4478V54.4474M32.4 54.4474V54.447M32.4 54.4474V54.447M32.4 54.447V54.4466M32.4 54.447V54.4466M32.4 54.4466V54.4463M32.4 54.4466V54.4463M32.4 54.4463V54.4459M32.4 54.4463V54.4459M32.4 54.4459V54.4455M32.4 54.4459V54.4455M32.4 54.4455V54.4451M32.4 54.4455V54.4451M32.4 54.4451V54.4447M32.4 54.4451V54.4447M32.4 54.4447V54.4443M32.4 54.4447V54.4443M32.4 54.4443V54.444M32.4 54.4443V54.444M32.4 54.444V54.4436M32.4 54.444V54.4436M32.4 54.4436V54.4432M32.4 54.4436V54.4432M32.4 54.4432V54.4428M32.4 54.4432V54.4428M32.4 54.4428V54.4425M32.4 54.4428V54.4425M32.4 54.4425V54.4421M32.4 54.4425V54.4421M32.4 54.4421V54.4417M32.4 54.4421V54.4417M32.4 54.4417V54.4414M32.4 54.4417V54.4414M32.4 54.4414V54.441M32.4 54.4414V54.441M32.4 54.441V54.4406M32.4 54.441V54.4406M32.4 54.4406V54.4403M32.4 54.4406V54.4403M32.4 54.4403V54.4399M32.4 54.4403V54.4399M32.4 54.4399V54.4395M32.4 54.4399V54.4395M32.4 54.4395V54.4392M32.4 54.4395V54.4392M32.4 54.4392V54.4388M32.4 54.4392V54.4388M32.4 54.4388V54.4385M32.4 54.4388V54.4385M32.4 54.4385V54.4381M32.4 54.4385V54.4381M32.4 54.4381V54.4377M32.4 54.4381V54.4377M32.4 54.4377V54.4374M32.4 54.4377V54.4374M32.4 54.4374V54.437M32.4 54.4374V54.437M32.4 54.437V54.4367M32.4 54.437V54.4367M32.4 54.4367V54.4363M32.4 54.4367V54.4363M32.4 54.4363V54.436M32.4 54.4363V54.436M32.4 54.436V54.4356M32.4 54.436V54.4356M32.4 54.4356V54.4353M32.4 54.4356V54.4353M32.4 54.4353V54.4349M32.4 54.4353V54.4349M32.4 54.4349V54.4346M32.4 54.4349V54.4346M32.4 54.4346V54.4342M32.4 54.4346V54.4342M32.4 54.4342V54.4339M32.4 54.4342V54.4339M32.4 54.4339V54.4335M32.4 54.4339V54.4335M32.4 54.4335V54.4332M32.4 54.4335V54.4332M32.4 54.4332V54.4328M32.4 54.4332V54.4328M32.4 54.4328V54.4325M32.4 54.4328V54.4325M32.4 54.4325V54.4321M32.4 54.4325V54.4321M32.4 54.4321V54.4318M32.4 54.4321V54.4318M32.4 54.4318V54.4315M32.4 54.4318V54.4315M32.4 54.4315V54.4311M32.4 54.4315V54.4311M32.4 54.4311V54.4308M32.4 54.4311V54.4308M32.4 54.4308V54.4305M32.4 54.4308V54.4305M32.4 54.4305V54.4301M32.4 54.4305V54.4301M32.4 54.4301V54.4298M32.4 54.4301V54.4298M32.4 54.4298V54.4294M32.4 54.4298V54.4294M32.4 54.4294V54.4291M32.4 54.4294V54.4291M32.4 54.4291V54.4288M32.4 54.4291V54.4288M32.4 54.4288V54.4284M32.4 54.4288V54.4284M32.4 54.4284V54.4281M32.4 54.4284V54.4281M32.4 54.4281V54.4278M32.4 54.4281V54.4278M32.4 54.4278V54.4275M32.4 54.4278V54.4275M32.4 54.4275V54.4271M32.4 54.4275V54.4271M32.4 54.4271V54.4268M32.4 54.4271V54.4268M32.4 54.4268V54.4265M32.4 54.4268V54.4265M32.4 54.4265V54.4261M32.4 54.4265V54.4261M32.4 54.4261V54.4258M32.4 54.4261V54.4258M32.4 54.4258V54.4255M32.4 54.4258V54.4255M32.4 54.4255V54.4252M32.4 54.4255V54.4252M32.4 54.4252V54.4248M32.4 54.4252V54.4248M32.4 54.4248V54.4245M32.4 54.4248V54.4245M32.4 54.4245V54.4242M32.4 54.4245V54.4242M32.4 54.4242V54.4239M32.4 54.4242V54.4239M32.4 54.4239V54.4236M32.4 54.4239V54.4236M32.4 54.4236V54.4232M32.4 54.4236V54.4232M32.4 54.4232V54.4229M32.4 54.4232V54.4229M32.4 54.4229V54.4226M32.4 54.4229V54.4226M32.4 54.4226V54.4223M32.4 54.4226V54.4223M32.4 54.4223V54.422M32.4 54.4223V54.422M32.4 54.422V54.4217M32.4 54.422V54.4217M32.4 54.4217V54.4213M32.4 54.4217V54.4213M32.4 54.4213V54.421M32.4 54.4213V54.421M32.4 54.421V54.4207M32.4 54.421V54.4207M32.4 54.4207V54.4204M32.4 54.4207V54.4204M32.4 54.4204V54.4201M32.4 54.4204V54.4201M32.4 54.4201V54.4198M32.4 54.4201V54.4198M32.4 54.4198V54.4195M32.4 54.4198V54.4195M32.4 54.4195V54.4191M32.4 54.4195V54.4191M32.4 54.4191V54.4188M32.4 54.4191V54.4188M32.4 54.4188V54.4185M32.4 54.4188V54.4185M32.4 54.4185V54.4182M32.4 54.4185V54.4182M32.4 54.4182V54.4179M32.4 54.4182V54.4179M32.4 54.4179V54.4176M32.4 54.4179V54.4176M32.4 54.4176V54.4173M32.4 54.4176V54.4173M32.4 54.4173V54.417M32.4 54.4173V54.417M32.4 54.417V54.4167M32.4 54.417V54.4167M32.4 54.4167V54.4164M32.4 54.4167V54.4164M32.4 54.4164V54.4161M32.4 54.4164V54.4161M32.4 54.4161V54.4158M32.4 54.4161V54.4158M32.4 54.4158V54.4154M32.4 54.4158V54.4154M32.4 54.4154V54.4151M32.4 54.4154V54.4151M32.4 54.4151V54.4148M32.4 54.4151V54.4148M32.4 54.4148V54.4145M32.4 54.4148V54.4145M32.4 54.4145V54.4142M32.4 54.4145V54.4142M32.4 54.4142V54.4139M32.4 54.4142V54.4139M32.4 54.4139V54.4136M32.4 54.4139V54.4136M32.4 54.4136V54.4133M32.4 54.4136V54.4133M32.4 54.4133V54.413M32.4 54.4133V54.413M32.4 54.413V54.4127M32.4 54.413V54.4127M32.4 54.4127V54.4124M32.4 54.4127V54.4124M32.4 54.4124V54.4121M32.4 54.4124V54.4121M32.4 54.4121V54.4118M32.4 54.4121V54.4118M32.4 54.4118V54.4115M32.4 54.4118V54.4115M32.4 54.4115V54.4112M32.4 54.4115V54.4112M32.4 54.4112V54.4109M32.4 54.4112V54.4109M32.4 54.4109V54.4106M32.4 54.4109V54.4106M32.4 54.4106V54.4103M32.4 54.4106V54.4103M32.4 54.4103V54.41M32.4 54.4103V54.41M32.4 54.41V54.4097M32.4 54.41V54.4097M32.4 54.4097V54.4094M32.4 54.4097V54.4094M32.4 54.4094V54.4091M32.4 54.4094V54.4091M32.4 54.4091V54.4088M32.4 54.4091V54.4088M32.4 54.4088V54.4085M32.4 54.4088V54.4085M32.4 54.4085V54.4082M32.4 54.4085V54.4082M32.4 54.4082V54.4079M32.4 54.4082V54.4079M32.4 54.4079V54.4076M32.4 54.4079V54.4076M32.4 54.4076V54.4074M32.4 54.4076V54.4074M32.4 54.4074V54.4071M32.4 54.4074V54.4071M32.4 54.4071V54.4068M32.4 54.4071V54.4068M32.4 54.4068V54.4065M32.4 54.4068V54.4065M32.4 54.4065V54.4062M32.4 54.4065V54.4062M32.4 54.4062V54.4059M32.4 54.4062V54.4059M32.4 54.4059V54.4056M32.4 54.4059V54.4056M32.4 54.4056V54.4053M32.4 54.4056V54.4053M32.4 54.4053V54.405M32.4 54.4053V54.405M32.4 54.405V54.4047M32.4 54.405V54.4047M32.4 54.4047V54.4044M32.4 54.4047V54.4044M32.4 54.4044V54.4041M32.4 54.4044V54.4041M32.4 54.4041V54.4038M32.4 54.4041V54.4038M32.4 54.4038V54.4035M32.4 54.4038V54.4035M32.4 54.4035V54.4032M32.4 54.4035V54.4032M32.4 54.4032V54.4029M32.4 54.4032V54.4029M32.4 54.4029V54.4026M32.4 54.4029V54.4026M32.4 54.4026V54.4023M32.4 54.4026V54.4023M32.4 54.4023V54.4021M32.4 54.4023V54.4021M32.4 54.4021V54.4018M32.4 54.4021V54.4018M32.4 54.4018V54.4015M32.4 54.4018V54.4015M32.4 54.4015V54.4012M32.4 54.4015V54.4012M32.4 54.4012V54.4009M32.4 54.4012V54.4009M32.4 54.4009V54.4006M32.4 54.4009V54.4006M32.4 54.4006V54.4003M32.4 54.4006V54.4003M32.4 54.4003V54.4M32.4 54.4003V54.4M32.4 54.4V54.3997M32.4 54.4V54.3997M32.4 54.3997V54.3994M32.4 54.3997V54.3994M32.4 54.3994V54.3991M32.4 54.3994V54.3991M32.4 54.3991V54.3988M32.4 54.3991V54.3988M32.4 54.3988V54.3985M32.4 54.3988V54.3985M32.4 54.3985V54.3982M32.4 54.3985V54.3982M32.4 54.3982V54.398M32.4 54.3982V54.398M32.4 54.398V54.3977M32.4 54.398V54.3977M32.4 54.3977V54.3974M32.4 54.3977V54.3974M32.4 54.3974V54.3971M32.4 54.3974V54.3971M32.4 54.3971V54.3968M32.4 54.3971V54.3968M32.4 54.3968V54.3965M32.4 54.3968V54.3965M32.4 54.3965V54.3962M32.4 54.3965V54.3962M32.4 54.3962V54.3959M32.4 54.3962V54.3959M32.4 54.3959V54.3956M32.4 54.3959V54.3956M32.4 54.3956V54.3953M32.4 54.3956V54.3953M32.4 54.3953V54.395M32.4 54.3953V54.395M32.4 54.395V54.3947M32.4 54.395V54.3947M32.4 54.3947V54.3944M32.4 54.3947V54.3944M32.4 54.3944V54.3941M32.4 54.3944V54.3941M32.4 54.3941V54.3938M32.4 54.3941V54.3938M32.4 54.3938V54.3935M32.4 54.3938V54.3935M32.4 54.3935V54.3932M32.4 54.3935V54.3932M32.4 54.3932V54.393M32.4 54.3932V54.393M32.4 54.393V54.3927M32.4 54.393V54.3927M32.4 54.3927V54.3924M32.4 54.3927V54.3924M32.4 54.3924V54.3921M32.4 54.3924V54.3921M32.4 54.3921V54.3918M32.4 54.3921V54.3918M32.4 54.3918V54.3915M32.4 54.3918V54.3915M32.4 54.3915V54.3912M32.4 54.3915V54.3912M32.4 54.3912V54.3909M32.4 54.3912V54.3909M32.4 54.3909V54.3906M32.4 54.3909V54.3906M32.4 54.3906V54.3903M32.4 54.3906V54.3903M32.4 54.3903V54.39M32.4 54.3903V54.39M32.4 54.39V54.3897M32.4 54.39V54.3897M32.4 54.3897V54.3894M32.4 54.3897V54.3894M32.4 54.3894V54.3891M32.4 54.3894V54.3891M32.4 54.3891V54.3888M32.4 54.3891V54.3888M32.4 54.3888V54.3885M32.4 54.3888V54.3885M32.4 54.3885V54.3882M32.4 54.3885V54.3882M32.4 54.3882V54.3879M32.4 54.3882V54.3879M32.4 54.3879V54.3876M32.4 54.3879V54.3876M32.4 54.3876V54.3873M32.4 54.3876V54.3873M32.4 54.3873V54.387M32.4 54.3873V54.387M32.4 54.387V54.3867M32.4 54.387V54.3867M32.4 54.3867V54.3864M32.4 54.3867V54.3864M32.4 54.3864V54.3861M32.4 54.3864V54.3861M32.4 54.3861V54.3858M32.4 54.3861V54.3858M32.4 54.3858V54.3855M32.4 54.3858V54.3855M32.4 54.3855V54.3852M32.4 54.3855V54.3852M32.4 54.3852V54.3849M32.4 54.3852V54.3849M32.4 54.3849V54.3846M32.4 54.3849V54.3846M32.4 54.3846V54.3843M32.4 54.3846V54.3843M32.4 54.3843V54.3839M32.4 54.3843V54.3839M32.4 54.3839V54.3836M32.4 54.3839V54.3836M32.4 54.3836V54.3833M32.4 54.3836V54.3833M32.4 54.3833V54.383M32.4 54.3833V54.383M32.4 54.383V54.3827M32.4 54.383V54.3827M32.4 54.3827V54.3824M32.4 54.3827V54.3824M32.4 54.3824V54.3821M32.4 54.3824V54.3821M32.4 54.3821V54.3818M32.4 54.3821V54.3818M32.4 54.3818V54.3815M32.4 54.3818V54.3815M32.4 54.3815V54.3812M32.4 54.3815V54.3812M32.4 54.3812V54.3809M32.4 54.3812V54.3809M32.4 54.3809V54.3806M32.4 54.3809V54.3806M32.4 54.3806V54.3802M32.4 54.3806V54.3802M32.4 54.3802V54.3799M32.4 54.3802V54.3799M32.4 54.3799V54.3796M32.4 54.3799V54.3796M32.4 54.3796V54.3793M32.4 54.3796V54.3793M32.4 54.3793V54.379M32.4 54.3793V54.379M32.4 54.379V54.3787M32.4 54.379V54.3787M32.4 54.3787V54.3784M32.4 54.3787V54.3784M32.4 54.3784V54.378M32.4 54.3784V54.378M32.4 54.378V54.3777M32.4 54.378V54.3777M32.4 54.3777V54.3774M32.4 54.3777V54.3774M32.4 54.3774V54.3771M32.4 54.3774V54.3771M32.4 54.3771V54.3768M32.4 54.3771V54.3768M32.4 54.3768V54.3764M32.4 54.3768V54.3764M32.4 54.3764V54.3761M32.4 54.3764V54.3761M32.4 54.3761V54.3758M32.4 54.3761V54.3758M32.4 54.3758V54.3755M32.4 54.3758V54.3755M32.4 54.3755V54.3752M32.4 54.3755V54.3752M32.4 54.3752V54.3748M32.4 54.3752V54.3748M32.4 54.3748V54.3745M32.4 54.3748V54.3745M32.4 54.3745V54.3742M32.4 54.3745V54.3742M32.4 54.3742V54.3739M32.4 54.3742V54.3739M32.4 54.3739V54.3735M32.4 54.3739V54.3735M32.4 54.3735V54.3732M32.4 54.3735V54.3732M32.4 54.3732V54.3729M32.4 54.3732V54.3729M32.4 54.3729V54.3725M32.4 54.3729V54.3725M32.4 54.3725V54.3722M32.4 54.3725V54.3722M32.4 54.3722V54.3719M32.4 54.3722V54.3719M32.4 54.3719V54.3716M32.4 54.3719V54.3716M32.4 54.3716V54.3712M32.4 54.3716V54.3712M32.4 54.3712V54.3709M32.4 54.3712V54.3709M32.4 54.3709V54.3706M32.4 54.3709V54.3706M32.4 54.3706V54.3702M32.4 54.3706V54.3702M32.4 54.3702V54.3699M32.4 54.3702V54.3699M32.4 54.3699V54.3696M32.4 54.3699V54.3696M32.4 54.3696V54.3692M32.4 54.3696V54.3692M32.4 54.3692V54.3689M32.4 54.3692V54.3689M32.4 54.3689V54.3685M32.4 54.3689V54.3685M32.4 54.3685V54.3682M32.4 54.3685V54.3682M32.4 54.3682V54.3679M32.4 54.3682V54.3679M32.4 54.3679V54.3675M32.4 54.3679V54.3675M32.4 54.3675V54.3672M32.4 54.3675V54.3672M32.4 54.3672V54.3668M32.4 54.3672V54.3668M32.4 54.3668V54.3665M32.4 54.3668V54.3665M32.4 54.3665V54.3661M32.4 54.3665V54.3661M32.4 54.3661V54.3658M32.4 54.3661V54.3658M32.4 54.3658V54.3654M32.4 54.3658V54.3654M32.4 54.3654V54.3651V54.3654ZM56.6095 46.7976L61.3575 47.5098C61.0956 48.6142 61.1284 49.7113 61.2061 50.4104L61.206 50.4104L61.2077 50.424C61.2875 51.0625 61.5817 51.606 62.0503 51.9809C62.5069 52.3462 63.0636 52.5 63.6 52.5H63.6006H63.6012H63.6017H63.6023H63.6029H63.6035H63.604H63.6046H63.6052H63.6057H63.6063H63.6069H63.6074H63.608H63.6085H63.6091H63.6096H63.6102H63.6107H63.6113H63.6118H63.6124H63.6129H63.6134H63.614H63.6145H63.615H63.6155H63.6161H63.6166H63.6171H63.6176H63.6181H63.6187H63.6192H63.6197H63.6202H63.6207H63.6212H63.6217H63.6222H63.6227H63.6232H63.6237H63.6242H63.6247H63.6252H63.6257H63.6261H63.6266H63.6271H63.6276H63.6281H63.6285H63.629H63.6295H63.63H63.6304H63.6309H63.6314H63.6318H63.6323H63.6327H63.6332H63.6337H63.6341H63.6346H63.635H63.6355H63.6359H63.6364H63.6368H63.6373H63.6377H63.6381H63.6386H63.639H63.6394H63.6399H63.6403H63.6407H63.6412H63.6416H63.642H63.6424H63.6429H63.6433H63.6437H63.6441H63.6446H63.645H63.6454H63.6458H63.6462H63.6466H63.647H63.6474H63.6478H63.6482H63.6486H63.649H63.6494H63.6498H63.6502H63.6506H63.651H63.6514H63.6518H63.6522H63.6526H63.653H63.6534H63.6537H63.6541H63.6545H63.6549H63.6553H63.6557H63.656H63.6564H63.6568H63.6572H63.6575H63.6579H63.6583H63.6586H63.659H63.6594H63.6597H63.6601H63.6605H63.6608H63.6612H63.6616H63.6619H63.6623H63.6626H63.663H63.6633H63.6637H63.664H63.6644H63.6647H63.6651H63.6654H63.6658H63.6661H63.6665H63.6668H63.6672H63.6675H63.6679H63.6682H63.6685H63.6689H63.6692H63.6695H63.6699H63.6702H63.6706H63.6709H63.6712H63.6716H63.6719H63.6722H63.6725H63.6729H63.6732H63.6735H63.6739H63.6742H63.6745H63.6748H63.6752H63.6755H63.6758H63.6761H63.6764H63.6768H63.6771H63.6774H63.6777H63.678H63.6783H63.6787H63.679H63.6793H63.6796H63.6799H63.6802H63.6805H63.6809H63.6812H63.6815H63.6818H63.6821H63.6824H63.6827H63.683H63.6833H63.6836H63.6839H63.6842H63.6846H63.6849H63.6852H63.6855H63.6858H63.6861H63.6864H63.6867H63.687H63.6873H63.6876H63.6879H63.6882H63.6885H63.6888H63.6891H63.6894H63.6897H63.69H63.6903H63.6906H63.6909H63.6912H63.6915H63.6918H63.6921H63.6924H63.6926H63.6929H63.6932H63.6935H63.6938H63.6941H63.6944H63.6947H63.695H63.6953H63.6956H63.6959H63.6962H63.6965H63.6968H63.6971H63.6974H63.6977H63.6979H63.6982H63.6985H63.6988H63.6991H63.6994H63.6997H63.7H63.7003H63.7006H63.7009H63.7012H63.7015H63.7018H63.702H63.7023H63.7026H63.7029H63.7032H63.7035H63.7038H63.7041H63.7044H63.7047H63.705H63.7053H63.7056H63.7059H63.7062H63.7065H63.7068H63.7071H63.7073H63.7076H63.7079H63.7082H63.7085H63.7088H63.7091H63.7094H63.7097H63.71H63.7103H63.7106H63.7109H63.7112H63.7115H63.7118H63.7121H63.7124H63.7127H63.713H63.7133H63.7136H63.7139H63.7142H63.7145H63.7148H63.7151H63.7154H63.7157H63.7161H63.7164H63.7167H63.717H63.7173H63.7176H63.7179H63.7182H63.7185H63.7188H63.7191H63.7195H63.7198H63.7201H63.7204H63.7207H63.721H63.7213H63.7216H63.722H63.7223H63.7226H63.7229H63.7232H63.7236H63.7239H63.7242H63.7245H63.7248H63.7252H63.7255H63.7258H63.7261H63.7265H63.7268H63.7271H63.7275H63.7278H63.7281H63.7284H63.7288H63.7291H63.7294H63.7298H63.7301H63.7304H63.7308H63.7311H63.7315H63.7318H63.7321H63.7325H63.7328H63.7332H63.7335H63.7339H63.7342H63.7346H63.7349H63.7353H63.7356H63.736H63.7363H63.7367H63.737H63.7374H63.7377H63.7381H63.7384H63.7388H63.7392H63.7395H63.7399H63.7403H63.7406H63.741H63.7414H63.7417H63.7421H63.7425H63.7428H63.7432H63.7436H63.744H63.7443H63.7447H63.7451H63.7455H63.7459H63.7463H63.7466H63.747H63.7474H63.7478H63.7482H63.7486H63.749H63.7494H63.7498H63.7502H63.7506H63.751H63.7514H63.7518H63.7522H63.7526H63.753H63.7534H63.7538H63.7542H63.7546H63.755H63.7554H63.7559H63.7563H63.7567H63.7571H63.7575H63.758H63.7584H63.7588H63.7593H63.7597H63.7601H63.7606H63.761H63.7614H63.7619H63.7623H63.7627H63.7632H63.7636H63.7641H63.7645H63.765H63.7654H63.7659H63.7663H63.7668H63.7673H63.7677H63.7682H63.7686H63.7691H63.7696H63.77H63.7705H63.771H63.7715H63.7719H63.7724H63.7729H63.7734H63.7739H63.7743H63.7748H63.7753H63.7758H63.7763H63.7768H63.7773H63.7778H63.7783H63.7788H63.7793H63.7798H63.7803H63.7808H63.7813H63.7819H63.7824H63.7829H63.7834H63.7839H63.7845H63.785H63.7855H63.786H63.7866H63.7871H63.7876H63.7882H63.7887H63.7893H63.7898H63.7904H63.7909H63.7915H63.792H63.7926H63.7931H63.7937H63.7943H63.7948H63.7954H63.796H63.7965H63.7971H63.7977H63.7983H63.7988H63.7994H63.8H63.8623L63.924 52.4923C65.3456 52.3146 66.1592 50.9432 65.9899 49.7586L65.986 49.7311L65.9806 49.7039C65.9586 49.5939 65.9288 49.1251 66.0197 48.6506C66.0634 48.4222 66.1253 48.2477 66.1906 48.1339C66.2165 48.0888 66.2377 48.0619 66.2524 48.0462L69.5282 48.5142C69.5703 48.6618 69.6 48.8306 69.6 49V87.5C69.6 88.8977 70.7943 89.9 72 89.9C72.6752 89.9 73.2668 89.5725 73.6696 89.1696C74.0725 88.7668 74.4 88.1752 74.4 87.5V49.1C74.4 48.6971 74.3606 48.3284 74.3094 47.9812C75.4362 47.3773 76.566 46.3805 76.8848 44.5738L76.8884 44.553L76.8912 44.5322C77.0095 43.6448 76.9259 42.9154 76.7237 42.3088C76.5234 41.708 76.2238 41.2796 75.985 40.9805C75.1226 39.8763 73.8827 39.636 73.4561 39.5533C73.4152 39.5454 73.3818 39.5389 73.3569 39.5333L61.6767 36.1266L54.0729 26.8654L54.0418 26.8276L54.0071 26.7929C54.0045 26.7903 54.0015 26.7873 53.9983 26.7841C53.9556 26.7412 53.8596 26.6447 53.75 26.5625C53.7057 26.5293 53.6343 26.4788 53.5393 26.4309C53.5019 26.3987 53.4597 26.3617 53.4128 26.3207C52.6277 25.6334 50.5333 23.8 47.6 23.8C46.6602 23.8 45.7545 23.8184 44.8787 24.1155C43.9684 24.4244 43.1807 24.9982 42.3542 25.9338C42.1719 26.1364 41.8629 26.571 41.5031 27.0952C41.1191 27.6547 40.6264 28.3923 40.0603 29.2513C38.9276 30.97 37.4908 33.1893 36.0217 35.4712C34.7785 37.4021 33.5134 39.3758 32.3877 41.132C30.8478 43.5343 29.5689 45.5296 28.964 46.4513L28.9318 46.5004L28.9056 46.5528C28.9006 46.5628 28.8947 46.5743 28.8882 46.5871C28.8077 46.7449 28.6238 47.1054 28.6021 47.5202L27.8166 53.7058L20.0345 82.5394L20 82.6674V82.8V82.8052C19.7896 83.9516 19.8048 85.5658 20.3612 87.082C20.9475 88.6795 22.1531 90.198 24.3078 90.8564L24.3165 90.859L24.3253 90.8615C25.0668 91.0734 25.6679 91.2 26.4 91.2C28.359 91.2 29.9476 90.3111 31.0299 89.4617C32.0668 88.6479 32.85 87.6642 32.8071 87.7071C33.0515 87.4627 33.251 87.0801 33.2922 86.6591L38.7561 65.8961L41.0368 68.7931L42.8 85.0539V85.0545V85.055V85.0556V85.0562V85.0567V85.0573V85.0579V85.0584V85.059V85.0595V85.0601V85.0607V85.0612V85.0618V85.0623V85.0629V85.0635V85.064V85.0646V85.0651V85.0657V85.0663V85.0668V85.0674V85.0679V85.0685V85.069V85.0696V85.0701V85.0707V85.0712V85.0718V85.0723V85.0729V85.0734V85.074V85.0745V85.0751V85.0756V85.0762V85.0767V85.0773V85.0778V85.0784V85.0789V85.0794V85.08V85.0805V85.0811V85.0816V85.0822V85.0827V85.0832V85.0838V85.0843V85.0848V85.0854V85.0859V85.0864V85.087V85.0875V85.0881V85.0886V85.0891V85.0896V85.0902V85.0907V85.0912V85.0918V85.0923V85.0928V85.0933V85.0939V85.0944V85.0949V85.0954V85.096V85.0965V85.097V85.0975V85.098V85.0985V85.0991V85.0996V85.1001V85.1006V85.1011V85.1016V85.1022V85.1027V85.1032V85.1037V85.1042V85.1047V85.1052V85.1057V85.1062V85.1067V85.1072V85.1077V85.1082V85.1087V85.1092V85.1097V85.1102V85.1107V85.1112V85.1117V85.1122V85.1127V85.1132V85.1137V85.1142V85.1147V85.1152V85.1157V85.1161V85.1166V85.1171V85.1176V85.1181V85.1186V85.1191V85.1195V85.12V85.1205V85.121V85.1215V85.1219V85.1224V85.1229V85.1234V85.1238V85.1243V85.1248V85.1252V85.1257V85.1262V85.1266V85.1271V85.1276V85.128V85.1285V85.129V85.1294V85.1299V85.1303V85.1308V85.1312V85.1317V85.1321V85.1326V85.1331V85.1335V85.1339V85.1344V85.1348V85.1353V85.1357V85.1362V85.1366V85.1371V85.1375V85.1379V85.1384V85.1388V85.1393V85.1397V85.1401V85.1405V85.141V85.1414V85.1418V85.1423V85.1427V85.1431V85.1435V85.144V85.1444V85.1448V85.1452V85.1456V85.1461V85.1465V85.1469V85.1473V85.1477V85.1481V85.1485V85.1489V85.1493V85.1497V85.1502V85.1506V85.151V85.1514V85.1518V85.1521V85.1525V85.1529V85.1533V85.1537V85.1541V85.1545V85.1549V85.1553V85.1557V85.1561V85.1564V85.1568V85.1572V85.1576V85.158V85.1583V85.1587V85.1591V85.1594V85.1598V85.1602V85.1606V85.1609V85.1613V85.1616V85.162V85.1624V85.1627V85.1631V85.1634V85.1638V85.1642V85.1645V85.1649V85.1652V85.1656V85.1659V85.1662V85.1666V85.1669V85.1673V85.1676V85.1679V85.1683V85.1686V85.1689V85.1693V85.1696V85.1699V85.1703V85.1706V85.1709V85.1712V85.1716V85.1719V85.1722V85.1725V85.1728V85.1731V85.1734V85.1738V85.1741V85.1744V85.1747V85.175V85.1753V85.1756V85.1759V85.1762V85.1765V85.1768V85.1771V85.1773V85.1776V85.1779V85.1782V85.1785V85.1788V85.1791V85.1793V85.1796V85.1799V85.1802V85.1804V85.1807V85.181V85.1812V85.1815V85.1818V85.182V85.1823V85.1826V85.1828V85.1831V85.1833V85.1836V85.1838V85.1841V85.1843V85.1846V85.1848V85.1851V85.1853V85.1855V85.1858V85.186V85.1862V85.1865V85.1867V85.1869V85.1871V85.1874V85.1876V85.1878V85.188V85.1882V85.1885V85.1887V85.1889V85.1891V85.1893V85.1895V85.1897V85.1899V85.1901V85.1903V85.1905V85.1907V85.1909V85.1911V85.1913V85.1915V85.1916V85.1918V85.192V85.1922V85.1924V85.1925V85.1927V85.1929V85.1931V85.1932V85.1934V85.1936V85.1937V85.1939V85.194V85.1942V85.1943V85.1945V85.1946V85.1948V85.1949V85.1951V85.1952V85.1954V85.1955V85.1956V85.1958V85.1959V85.196V85.1962V85.1963V85.1964V85.1965V85.1967V85.1968V85.1969V85.197V85.1971V85.1972V85.1973V85.1974V85.1976V85.1977V85.1978V85.1978V85.1979V85.198V85.1981V85.1982V85.1983V85.1984V85.1985V85.1986V85.1986V85.1987V85.1988V85.1989V85.1989V85.199V85.1991V85.1991V85.1992V85.1992V85.1993V85.1994V85.1994V85.1995V85.1995V85.1996V85.1996V85.1996V85.1997V85.1997V85.1997V85.1998V85.1998V85.1999V85.1999V85.1999V85.2V85.3526L42.8455 85.4983C43.408 87.2981 45.3795 90.7162 49.9256 90.5997C52.1897 90.5429 53.7952 89.6814 54.8561 88.5448C55.8922 87.4346 56.3695 86.106 56.4923 85.124L56.5 85.0623V85V84.9994V84.9988V84.9982V84.9977V84.9971V84.9965V84.9959V84.9953V84.9947V84.9941V84.9936V84.993V84.9924V84.9918V84.9912V84.9906V84.99V84.9895V84.9889V84.9883V84.9877V84.9871V84.9865V84.9859V84.9854V84.9848V84.9842V84.9836V84.983V84.9824V84.9818V84.9813V84.9807V84.9801V84.9795V84.9789V84.9783V84.9777V84.9772V84.9766V84.976V84.9754V84.9748V84.9742V84.9736V84.973V84.9725V84.9719V84.9713V84.9707V84.9701V84.9695V84.9689V84.9684V84.9678V84.9672V84.9666V84.966V84.9654V84.9648V84.9643V84.9637V84.9631V84.9625V84.9619V84.9613V84.9607V84.9602V84.9596V84.959V84.9584V84.9578V84.9572V84.9566V84.9561V84.9555V84.9549V84.9543V84.9537V84.9531V84.9525V84.952V84.9514V84.9508V84.9502V84.9496V84.949V84.9484V84.9479V84.9473V84.9467V84.9461V84.9455V84.9449V84.9443V84.9438V84.9432V84.9426V84.942V84.9414V84.9408V84.9402V84.9397V84.9391V84.9385V84.9379V84.9373V84.9367V84.9361V84.9356V84.935V84.9344V84.9338V84.9332V84.9326V84.932V84.9314V84.9309V84.9303V84.9297V84.9291V84.9285V84.9279V84.9273V84.9268V84.9262V84.9256V84.925V84.9244V84.9238V84.9232V84.9227V84.9221V84.9215V84.9209V84.9203V84.9197V84.9191V84.9186V84.918V84.9174V84.9168V84.9162V84.9156V84.915V84.9145V84.9139V84.9133V84.9127V84.9121V84.9115V84.9109V84.9104V84.9098V84.9092V84.9086V84.908V84.9074V84.9068V84.9063V84.9057V84.9051V84.9045V84.9039V84.9033V84.9027V84.9022V84.9016V84.901V84.9004V84.8998V84.8992V84.8986V84.898V84.8975V84.8969V84.8963V84.8957V84.8951V84.8945V84.8939V84.8934V84.8928V84.8922V84.8916V84.891V84.8904V84.8898V84.8893V84.8887V84.8881V84.8875V84.8869V84.8863V84.8857V84.8852V84.8846V84.884V84.8834V84.8828V84.8822V84.8816V84.8811V84.8805V84.8799V84.8793V84.8787V84.8781V84.8775V84.877V84.8764V84.8758V84.8752V84.8746V84.874V84.8734V84.8729V84.8723V84.8717V84.8711V84.8705V84.8699V84.8693V84.8688V84.8682V84.8676V84.867V84.8664V84.8658V84.8652V84.8647V84.8641V84.8635V84.8629V84.8623V84.8617V84.8611V84.8605V84.86V84.8594V84.8588V84.8582V84.8576V84.857V84.8564V84.8559V84.8553V84.8547V84.8541V84.8535V84.8529V84.8523V84.8518V84.8512V84.8506V84.85V84.8494V84.8488V84.8482V84.8477V84.8471V84.8465V84.8459V84.8453V84.8447V84.8441V84.8436V84.843V84.8424V84.8418V84.8412V84.8406V84.84V84.8395V84.8389V84.8383V84.8377V84.8371V84.8365V84.8359V84.8354V84.8348V84.8342V84.8336V84.833V84.8324V84.8318V84.8313V84.8307V84.8301V84.8295V84.8289V84.8283V84.8277V84.8272V84.8266V84.826V84.8254V84.8248V84.8242V84.8236V84.823V84.8225V84.8219V84.8213V84.8207V84.8201V84.8195V84.8189V84.8184V84.8178V84.8172V84.8166V84.816V84.8154V84.8148V84.8143V84.8137V84.8131V84.8125V84.8119V84.8113V84.8107V84.8102V84.8096V84.809V84.8084V84.8078V84.8072V84.8066V84.8061V84.8055V84.8049V84.8043V84.8037V84.8031V84.8025V84.802V84.8014V84.8008V84.8002V84.7996V84.799V84.7984V84.7979V84.7973V84.7967V84.7961V84.7955V84.7949V84.7943V84.7938V84.7932V84.7926V84.792V84.7914V84.7908V84.7902V84.7896V84.7891V84.7885V84.7879V84.7873V84.7867V84.7861V84.7855V84.785V84.7844V84.7838V84.7832V84.7826V84.782V84.7814V84.7809V84.7803V84.7797V84.7791V84.7785V84.7779V84.7773V84.7768V84.7762V84.7756V84.775V84.7744V84.7738V84.7732V84.7727V84.7721V84.7715V84.7709V84.7703V84.7697V84.7691V84.7686V84.768V84.7674V84.7668V84.7662V84.7656V84.765V84.7645V84.7639V84.7633V84.7627V84.7621V84.7615V84.7609V84.7604V84.7598V84.7592V84.7586V84.758V84.7574V84.7568V84.7563V84.7557V84.7551V84.7545V84.7539V84.7533V84.7527V84.7521V84.7516V84.751V84.7504V84.7498V84.7492V84.7486V84.748V84.7475V84.7469V84.7463V84.7457V84.7451V84.7445V84.7439V84.7434V84.7428V84.7422V84.7416V84.741V84.7404V84.7398V84.7393V84.7387V84.7381V84.7375V84.7369V84.7363V84.7357V84.7352V84.7346V84.734V84.7334V84.7328V84.7322V84.7316V84.7311V84.7305V84.7299V84.7293V84.7287V84.7281V84.7275V84.727V84.7264V84.7258V84.7252V84.7246V84.724V84.7234V84.7229V84.7223V84.7217V84.7211V84.7205V84.7199V84.7193V84.7188V84.7182V84.7176V84.717V84.7164V84.7158V84.7152V84.7146V84.7141V84.7135V84.7129V84.7123V84.7117V84.7111V84.7105V84.71V84.7094V84.7088V84.7082V84.7076V84.707V84.7064V84.7059V84.7053V84.7047V84.7041V84.7035V84.7029V84.7023V84.7018V84.7012V84.7006V84.7V84.646L56.4942 84.5924L54.3986 65.233C54.3817 64.8284 54.2135 64.3464 53.8846 63.9752L46.0853 52.4665L51.8157 42.8874L55.2023 46.1165C55.4587 46.3703 55.9622 46.7634 56.6095 46.7976ZM72.7 43.92V43C72.75 43 72.825 43.025 72.9 43.05C72.975 43.075 73.05 43.1 73.1 43.1L72.7 43.92Z" fill="black" stroke="black" stroke-width="2"/>
</svg>
