<svg width="24" height="24" viewBox="0 0 24 24" fill="none" xmlns="http://www.w3.org/2000/svg">
<path d="M22.7531 3.99805C22.7109 3.9984 22.6687 4.00232 22.6272 4.00977L19.6272 4.50977C19.4626 4.53723 19.3119 4.61879 19.1988 4.74154C19.0858 4.86429 19.0169 5.02122 19.0031 5.1875L18.9982 5.24023L19.0002 5.15039L18.0217 9.85254L14.6408 11.832C14.2915 11.5972 13.8769 11.4787 13.4563 11.4932C13.2762 11.4994 13.0978 11.53 12.926 11.584L7.92598 13.084C7.61943 13.1763 7.33952 13.3408 7.10977 13.5638C6.88002 13.7868 6.70714 14.0616 6.60567 14.3652C6.59282 14.3871 6.58108 14.4096 6.57051 14.4326L4.93575 17.9355L1.43282 19.5703C1.34355 19.612 1.26337 19.6708 1.19684 19.7435C1.13032 19.8162 1.07876 19.9012 1.04511 19.9938C1.01147 20.0864 0.996384 20.1847 1.00073 20.2831C1.00508 20.3815 1.02877 20.4781 1.07045 20.5674C1.11213 20.6567 1.17099 20.7369 1.24366 20.8034C1.31633 20.8699 1.40139 20.9214 1.49398 20.9551C1.58658 20.9887 1.68489 21.0038 1.78331 20.9994C1.88173 20.9951 1.97832 20.9714 2.06758 20.9297L5.81758 19.1797C5.93406 19.1253 6.0346 19.0419 6.10957 18.9375L6.09981 19L7.82637 16.8828C8.22819 17.0268 8.66552 17.0384 9.07442 16.916L14.0744 15.416C14.3986 15.3238 14.6942 15.1511 14.9338 14.9141L19.5471 11.499C19.6849 11.4483 19.8049 11.3583 19.892 11.2401C19.9792 11.1219 20.0297 10.9807 20.0373 10.834L20.4494 5.89356L22.8732 5.49023C23.0618 5.4627 23.2328 5.36445 23.3515 5.21543C23.4703 5.0664 23.5278 4.87777 23.5125 4.68785C23.4972 4.49792 23.4102 4.32093 23.2692 4.19281C23.1282 4.0647 22.9436 3.99506 22.7531 3.99805ZM12.5588 8.0459C12.4942 8.03888 12.4277 8.04458 12.3615 8.06445L7.9504 9.38477C7.2889 9.58277 6.914 10.2799 7.1125 10.9414C7.311 11.6024 8.00765 11.9783 8.66915 11.7793L13.0803 10.459C13.3448 10.38 13.4947 10.1004 13.4152 9.83594L12.9836 8.39941C12.924 8.20104 12.7524 8.06695 12.5588 8.0459ZM4.0002 10.5C3.67958 10.5001 3.3637 10.5774 3.07918 10.7252C2.79465 10.8729 2.54983 11.087 2.36535 11.3492C2.18086 11.6114 2.06212 11.9141 2.01914 12.2319C1.97616 12.5496 2.01019 12.873 2.11836 13.1748L1.64668 13.6465C1.45118 13.842 1.45118 14.158 1.64668 14.3535L2.14668 14.8535C2.24318 14.95 2.3712 15 2.5002 15C2.5962 15 2.69304 14.9725 2.77754 14.916L3.49825 14.4355C3.66216 14.4782 3.83083 14.4999 4.0002 14.5C4.53063 14.5 5.03934 14.2893 5.41441 13.9142C5.78949 13.5391 6.0002 13.0304 6.0002 12.5C6.0002 11.9696 5.78949 11.4609 5.41441 11.0858C5.03934 10.7107 4.53063 10.5 4.0002 10.5Z" fill="#999999"/>
</svg>
