<svg width="24" height="24" viewBox="0 0 24 24" fill="none" xmlns="http://www.w3.org/2000/svg">
<path d="M10.1762 1.60001C9.83137 1.60001 9.5256 1.81968 9.4168 2.14688L9.0668 3.20001H7.70273C6.34433 3.20001 5.13042 4.06139 4.68242 5.34219L3.03555 10.0469C2.15635 10.6253 1.59961 11.6242 1.59961 12.7234V18.4C1.59961 19.284 2.31561 20 3.19961 20C4.08361 20 4.79961 19.284 4.79961 18.4V17.3906C4.79961 17.3906 9.02441 17.6 11.9996 17.6C14.9748 17.6 19.1996 17.3906 19.1996 17.3906V18.4C19.1996 19.284 19.9156 20 20.7996 20C21.6836 20 22.3996 19.284 22.3996 18.4V12.7234C22.3996 11.6242 21.8413 10.6245 20.9637 10.0469L19.3184 5.34376C18.8696 4.06216 17.6549 3.20001 16.2965 3.20001H14.9324L14.5824 2.14688C14.4736 1.81968 14.167 1.60001 13.823 1.60001H10.1762ZM7.70273 4.80001H16.2965C16.9765 4.80001 17.5826 5.23028 17.8074 5.87188L18.723 8.49063C18.867 8.90263 18.5246 9.31804 18.0934 9.24844C16.5246 8.99484 14.5076 8.80001 11.9996 8.80001C9.49161 8.80001 7.47466 8.99484 5.90586 9.24844C5.47466 9.31804 5.13217 8.90263 5.27617 8.49063L6.1918 5.87188C6.4166 5.23028 7.02273 4.80001 7.70273 4.80001ZM5.19961 12C5.86201 12 6.39961 12.5376 6.39961 13.2C6.39961 13.8624 5.86201 14.4 5.19961 14.4C4.53721 14.4 3.99961 13.8624 3.99961 13.2C3.99961 12.5376 4.53721 12 5.19961 12ZM9.59961 12H14.3996C14.8412 12 15.1996 12.3584 15.1996 12.8C15.1996 13.2416 14.8412 13.6 14.3996 13.6H9.59961C9.15801 13.6 8.79961 13.2416 8.79961 12.8C8.79961 12.3584 9.15801 12 9.59961 12ZM18.7996 12C19.462 12 19.9996 12.5376 19.9996 13.2C19.9996 13.8624 19.462 14.4 18.7996 14.4C18.1372 14.4 17.5996 13.8624 17.5996 13.2C17.5996 12.5376 18.1372 12 18.7996 12Z" fill="#999999"/>
</svg>
