<svg width="24" height="24" viewBox="0 0 24 24" fill="none" xmlns="http://www.w3.org/2000/svg">
<path d="M17.2802 0.959991C15.9546 0.959991 14.8802 2.03437 14.8802 3.35999C14.8802 4.68562 15.9546 5.75999 17.2802 5.75999C18.6058 5.75999 19.6802 4.68562 19.6802 3.35999C19.6802 2.03437 18.6058 0.959991 17.2802 0.959991ZM14.7752 6.23999C14.2464 6.23999 13.7439 6.50249 13.4552 6.94499L9.73518 12.63C9.57768 12.8812 9.58706 13.1719 9.70518 13.425L8.43018 15.27L6.85518 14.175C6.23268 13.7437 5.37018 13.8975 4.93518 14.52L2.22018 18.405C1.96331 18.7762 1.87143 19.2356 1.95018 19.68C2.02518 20.0944 2.25018 20.4431 2.58018 20.7C2.93643 19.8187 3.79331 19.2 4.80018 19.2C5.43205 19.2 6.00581 19.4437 6.43518 19.845L10.5302 13.92C10.7852 13.8994 11.0252 13.7625 11.1752 13.53L14.0702 9.34499L13.5152 12.33C13.3596 13.1681 13.5058 14.0231 13.9352 14.76L18.3752 22.56C18.5477 22.8562 18.8571 23.04 19.2002 23.04C19.8958 23.04 20.3646 22.3275 20.0852 21.69L16.7702 14.025L17.7152 8.98499C17.9852 7.55812 16.8883 6.23999 15.4352 6.23999H14.7752ZM18.1202 9.43499L17.6252 12.03L20.3102 14.22C20.6439 14.4919 21.1427 14.445 21.4202 14.115C21.7014 13.7812 21.6489 13.2844 21.3152 13.005L18.5702 10.695L18.1202 9.43499ZM13.2152 14.775L12.3902 17.625L9.75018 21.66C9.49893 22.0425 9.57393 22.56 9.93018 22.845C10.3221 23.1581 10.8902 23.0812 11.1902 22.68L13.9952 18.945L14.7002 17.37L13.2152 14.775ZM4.80018 20.16C4.00706 20.16 3.36018 20.8069 3.36018 21.6C3.36018 22.3931 4.00706 23.04 4.80018 23.04C5.59331 23.04 6.24018 22.3931 6.24018 21.6C6.24018 20.8069 5.59331 20.16 4.80018 20.16Z" fill="#999999"/>
</svg>
