<svg width="24" height="24" viewBox="0 0 24 24" fill="none" xmlns="http://www.w3.org/2000/svg">
<path d="M11.5747 2.00977C8.48704 2.13976 5.76654 3.683 4.02004 6H4.00051V6.02539C3.01351 7.34339 2.33917 8.90833 2.09817 10.6113C1.45817 15.1503 4.13668 19.3627 8.32668 21.2207C9.95468 21.9427 11.5215 22.0962 13.0005 21.9492V20.2988V12H9.00051V10H11.0005V7H15.0005V4.58984C17.9285 5.77984 20.0005 8.65 20.0005 12C20.0005 12.108 19.9889 12.2133 19.9849 12.3203L21.7857 14.0547C22.0417 12.8337 22.0824 11.5344 21.8364 10.1914C21.0374 5.83841 17.3274 2.43997 12.9204 2.04297C12.4662 2.00197 12.0158 1.9912 11.5747 2.00977ZM15.0005 10V20L17.2739 17.8379L19.3071 22.5234L21.5064 21.5234L19.4575 17H22.2739L15.0005 10ZM4.20949 10.209L6.00051 12L9.00051 15V18H11.0005V19.9316C7.06051 19.4366 4.00051 16.072 4.00051 12C4.00051 11.384 4.07749 10.786 4.20949 10.209Z" fill="black"/>
</svg>
